<svg width="104" height="104" viewBox="0 0 104 104" fill="none" xmlns="http://www.w3.org/2000/svg">
<rect x="1" y="1" width="102" height="102" rx="51" stroke="#2F5E8F" stroke-width="2" stroke-dasharray="8 4"/>
<rect x="8.5" y="8.5" width="95" height="95" rx="47.5" fill="#2F5E8F"/>
<rect x="8.5" y="8.5" width="95" height="95" rx="47.5" stroke="#2F5E8F"/>
<path fill-rule="evenodd" clip-rule="evenodd" d="M48.4 52C49.673 52 50.8939 51.4943 51.7941 50.5941C52.6942 49.6939 53.2 48.473 53.2 47.2C53.2 45.927 52.6942 44.7061 51.7941 43.8059C50.8939 42.9057 49.673 42.4 48.4 42.4C47.1269 42.4 45.906 42.9057 45.0058 43.8059C44.1057 44.7061 43.6 45.927 43.6 47.2C43.6 48.473 44.1057 49.6939 45.0058 50.5941C45.906 51.4943 47.1269 52 48.4 52ZM48.4 54.4C49.3455 54.4 50.2817 54.2138 51.1553 53.8519C52.0288 53.4901 52.8225 52.9598 53.4911 52.2912C54.1597 51.6226 54.69 50.8289 55.0519 49.9553C55.4137 49.0818 55.6 48.1455 55.6 47.2C55.6 46.2545 55.4137 45.3182 55.0519 44.4447C54.69 43.5711 54.1597 42.7774 53.4911 42.1088C52.8225 41.4402 52.0288 40.9099 51.1553 40.5481C50.2817 40.1862 49.3455 40 48.4 40C46.4904 40 44.659 40.7586 43.3088 42.1088C41.9585 43.4591 41.2 45.2904 41.2 47.2C41.2 49.1096 41.9585 50.9409 43.3088 52.2912C44.659 53.6414 46.4904 54.4 48.4 54.4Z" fill="white"/>
<path fill-rule="evenodd" clip-rule="evenodd" d="M45.6496 51.7504C45.7614 51.8619 45.85 51.9943 45.9105 52.1401C45.971 52.2859 46.0021 52.4422 46.0021 52.6C46.0021 52.7578 45.971 52.9141 45.9105 53.0599C45.85 53.2057 45.7614 53.3381 45.6496 53.4496L44.8384 54.2584C43.2773 55.8199 42.4002 57.9375 42.4 60.1456V64.6C42.4 64.9183 42.2736 65.2235 42.0485 65.4485C41.8235 65.6736 41.5183 65.8 41.2 65.8C40.8817 65.8 40.5765 65.6736 40.3515 65.4485C40.1264 65.2235 40 64.9183 40 64.6V60.1456C40.0003 57.3011 41.1304 54.5731 43.1416 52.5616L43.9504 51.7504C44.0619 51.6386 44.1943 51.55 44.3401 51.4895C44.4859 51.429 44.6422 51.3979 44.8 51.3979C44.9578 51.3979 45.1141 51.429 45.2599 51.4895C45.4057 51.55 45.5381 51.6386 45.6496 51.7504ZM73.9504 51.0304C73.8386 51.1419 73.75 51.2743 73.6895 51.4201C73.629 51.5659 73.5979 51.7222 73.5979 51.88C73.5979 52.0378 73.629 52.1941 73.6895 52.3399C73.75 52.4857 73.8386 52.6181 73.9504 52.7296L74.7616 53.5384C75.5347 54.3115 76.1479 55.2294 76.5663 56.2395C76.9847 57.2496 77.2 58.3323 77.2 59.4256V64.6C77.2 64.9183 77.3264 65.2235 77.5515 65.4485C77.7765 65.6736 78.0817 65.8 78.4 65.8C78.7183 65.8 79.0235 65.6736 79.2485 65.4485C79.4736 65.2235 79.6 64.9183 79.6 64.6V59.4256C79.5997 56.5811 78.4696 53.8531 76.4584 51.8416L75.6496 51.0304C75.5381 50.9186 75.4057 50.83 75.2599 50.7695C75.1141 50.709 74.9578 50.6779 74.8 50.6779C74.6422 50.6779 74.4859 50.709 74.3401 50.7695C74.1943 50.83 74.0619 50.9186 73.9504 51.0304Z" fill="white"/>
<path fill-rule="evenodd" clip-rule="evenodd" d="M70 52C68.727 52 67.5061 51.4943 66.6059 50.5941C65.7058 49.6939 65.2 48.473 65.2 47.2C65.2 45.927 65.7058 44.7061 66.6059 43.8059C67.5061 42.9057 68.727 42.4 70 42.4C71.2731 42.4 72.494 42.9057 73.3942 43.8059C74.2943 44.7061 74.8 45.927 74.8 47.2C74.8 48.473 74.2943 49.6939 73.3942 50.5941C72.494 51.4943 71.2731 52 70 52ZM70 54.4C69.0545 54.4 68.1183 54.2138 67.2447 53.8519C66.3712 53.4901 65.5775 52.9598 64.9089 52.2912C64.2403 51.6226 63.7099 50.8289 63.3481 49.9553C62.9863 49.0818 62.8 48.1455 62.8 47.2C62.8 46.2545 62.9863 45.3182 63.3481 44.4447C63.7099 43.5711 64.2403 42.7774 64.9089 42.1088C65.5775 41.4402 66.3712 40.9099 67.2447 40.5481C68.1183 40.1862 69.0545 40 70 40C71.9096 40 73.741 40.7586 75.0912 42.1088C76.4415 43.4591 77.2 45.2904 77.2 47.2C77.2 49.1096 76.4415 50.9409 75.0912 52.2912C73.741 53.6414 71.9096 54.4 70 54.4ZM59.2 62.2C57.6087 62.2 56.0826 62.8321 54.9574 63.9574C53.8322 65.0826 53.2 66.6087 53.2 68.2V71.32C53.2 71.6383 53.0736 71.9435 52.8486 72.1685C52.6235 72.3936 52.3183 72.52 52 72.52C51.6818 72.52 51.3766 72.3936 51.1515 72.1685C50.9265 71.9435 50.8 71.6383 50.8 71.32V68.2C50.8 65.9722 51.685 63.8356 53.2604 62.2603C54.8357 60.685 56.9722 59.8 59.2 59.8C61.4279 59.8 63.5644 60.685 65.1397 62.2603C66.715 63.8356 67.6 65.9722 67.6 68.2V71.32C67.6 71.6383 67.4736 71.9435 67.2486 72.1685C67.0235 72.3936 66.7183 72.52 66.4 72.52C66.0818 72.52 65.7766 72.3936 65.5515 72.1685C65.3265 71.9435 65.2 71.6383 65.2 71.32V68.2C65.2 67.4121 65.0449 66.6319 64.7433 65.9039C64.4418 65.1759 63.9998 64.5145 63.4427 63.9574C62.8855 63.4002 62.2241 62.9582 61.4961 62.6567C60.7682 62.3552 59.988 62.2 59.2 62.2Z" fill="white"/>
<path fill-rule="evenodd" clip-rule="evenodd" d="M59.2 58.6C60.473 58.6 61.6939 58.0943 62.5941 57.1941C63.4943 56.2939 64 55.073 64 53.8C64 52.527 63.4943 51.3061 62.5941 50.4059C61.6939 49.5057 60.473 49 59.2 49C57.927 49 56.7061 49.5057 55.8059 50.4059C54.9057 51.3061 54.4 52.527 54.4 53.8C54.4 55.073 54.9057 56.2939 55.8059 57.1941C56.7061 58.0943 57.927 58.6 59.2 58.6ZM59.2 61C61.1096 61 62.9409 60.2414 64.2912 58.8912C65.6414 57.5409 66.4 55.7096 66.4 53.8C66.4 51.8904 65.6414 50.0591 64.2912 48.7088C62.9409 47.3586 61.1096 46.6 59.2 46.6C57.2904 46.6 55.4591 47.3586 54.1088 48.7088C52.7586 50.0591 52 51.8904 52 53.8C52 55.7096 52.7586 57.5409 54.1088 58.8912C55.4591 60.2414 57.2904 61 59.2 61Z" fill="white"/>
</svg>
