<svg width="26" height="26" viewBox="0 0 26 26" fill="none" xmlns="http://www.w3.org/2000/svg">
<path fill-rule="evenodd" clip-rule="evenodd" d="M2.62631 6.39187L2.75987 6.24162C3.24938 5.72974 3.97863 5.47363 4.94695 5.47363H21.5421C22.4546 5.47363 23.1558 5.69635 23.6457 6.14144L23.6624 6.15814C23.7625 6.24729 23.863 6.35281 23.9629 6.47535C23.9629 6.4867 23.9686 6.49772 23.9796 6.50874L23.9963 6.52544C24.3639 6.98189 24.5472 7.62733 24.5472 8.46209V17.9116C24.5362 19.9151 23.5345 20.9168 21.5421 20.9168H4.94695C2.95454 20.9058 1.9585 19.904 1.9585 17.9116V8.46209C1.9585 7.56054 2.18121 6.87036 2.62631 6.39187ZM22.093 7.10977C21.9261 7.06536 21.7424 7.04833 21.5424 7.05969H4.94695C4.82441 7.04867 4.70754 7.05401 4.59635 7.07638L13.1944 15.7913L22.093 7.10977ZM3.54455 8.27844C3.53353 8.3342 3.53353 8.39531 3.54455 8.46209V17.9116C3.54455 18.8579 4.01202 19.3307 4.94695 19.3307H21.5421C22.488 19.3307 22.9612 18.8579 22.9612 17.9116V8.47879L13.7454 17.4775C13.5784 17.6335 13.3894 17.7113 13.1781 17.7113C12.9554 17.7003 12.766 17.6221 12.6104 17.4775L3.54455 8.27844Z" fill="#2F5E8F"/>
<path fill-rule="evenodd" clip-rule="evenodd" d="M2.62622 6.39147C2.64859 6.35808 2.67631 6.32469 2.7097 6.2913C2.72105 6.26892 2.73741 6.25223 2.75978 6.24121L2.62622 6.39147Z" fill="#2F5E8F"/>
</svg>
