<svg width="104" height="104" viewBox="0 0 104 104" fill="none" xmlns="http://www.w3.org/2000/svg">
<rect x="1" y="1" width="102" height="102" rx="51" stroke="#EAB308" stroke-width="2" stroke-dasharray="8 4"/>
<rect x="8.5" y="8.5" width="95" height="95" rx="47.5" fill="#EAB308"/>
<rect x="8.5" y="8.5" width="95" height="95" rx="47.5" stroke="#EAB308"/>
<path d="M76.4598 59.497C75.9462 59.1014 75.3481 58.8299 74.7122 58.7037C74.0763 58.5775 73.4199 58.6 72.7941 58.7695L71.9841 58.957C76.0623 55.1657 78.1248 51.4082 78.1248 47.7501C78.1248 42.9951 74.3016 39.1251 69.601 39.1251C68.2753 39.1168 66.966 39.4175 65.7767 40.0033C64.5875 40.5891 63.5511 41.444 62.7498 42.5001C61.9484 41.444 60.912 40.5891 59.7228 40.0033C58.5336 39.4175 57.2242 39.1168 55.8985 39.1251C51.1979 39.1251 47.3748 42.9951 47.3748 47.7501C47.3748 49.8838 48.0554 51.967 49.4916 54.1926C48.3143 54.3742 47.2262 54.9281 46.3866 55.7732L42.0348 60.1251H36.4998C35.8036 60.1251 35.1359 60.4016 34.6436 60.8939C34.1513 61.3862 33.8748 62.0539 33.8748 62.7501V70.2501C33.8748 70.9463 34.1513 71.614 34.6436 72.1062C35.1359 72.5985 35.8036 72.8751 36.4998 72.8751H55.9998C56.092 72.8751 56.184 72.8638 56.2735 72.8413L68.2735 69.8413C68.3303 69.8263 68.3861 69.8076 68.4404 69.7851L75.7191 66.6876L75.781 66.6595C76.4246 66.3381 76.9757 65.8581 77.3825 65.2649C77.7894 64.6716 78.0385 63.9845 78.1064 63.2684C78.1743 62.5522 78.0587 61.8306 77.7707 61.1714C77.4826 60.5123 77.0315 59.9373 76.4598 59.5007V59.497ZM55.8985 41.3751C57.1357 41.3586 58.3498 41.7116 59.3852 42.389C60.4207 43.0664 61.2305 44.0373 61.711 45.1776C61.7958 45.3839 61.9399 45.5604 62.1252 45.6846C62.3105 45.8088 62.5286 45.8751 62.7516 45.8751C62.9747 45.8751 63.1927 45.8088 63.378 45.6846C63.5633 45.5604 63.7075 45.3839 63.7923 45.1776C64.2728 44.0373 65.0826 43.0664 66.118 42.389C67.1535 41.7116 68.3675 41.3586 69.6048 41.3751C73.0023 41.3751 75.8748 44.2945 75.8748 47.7501C75.8748 51.5451 72.841 55.8126 67.0998 60.0782L64.3116 60.7195C64.5897 59.9817 64.6847 59.1875 64.5884 58.405C64.4922 57.6225 64.2076 56.875 63.7591 56.2266C63.3105 55.5782 62.7114 55.0483 62.0131 54.6823C61.3148 54.3163 60.5382 54.1251 59.7498 54.1251H52.1879C50.4423 51.8132 49.6248 49.777 49.6248 47.7501C49.6248 44.2945 52.4973 41.3751 55.8985 41.3751ZM36.1248 70.2501V62.7501C36.1248 62.6506 36.1643 62.5552 36.2346 62.4849C36.3049 62.4146 36.4003 62.3751 36.4998 62.3751H41.3748V70.6251H36.4998C36.4003 70.6251 36.3049 70.5856 36.2346 70.5153C36.1643 70.4449 36.1248 70.3495 36.1248 70.2501ZM74.8023 64.6251L67.6398 67.6757L55.861 70.6251H43.6248V61.717L47.9766 57.3632C48.2894 57.0488 48.6614 56.7996 49.0711 56.63C49.4808 56.4604 49.9201 56.3737 50.3635 56.3751H59.7498C60.4459 56.3751 61.1136 56.6516 61.6059 57.1439C62.0982 57.6362 62.3748 58.3039 62.3748 59.0001C62.3748 59.6963 62.0982 60.364 61.6059 60.8562C61.1136 61.3485 60.4459 61.6251 59.7498 61.6251H54.4998C54.2014 61.6251 53.9152 61.7436 53.7043 61.9546C53.4933 62.1656 53.3748 62.4517 53.3748 62.7501C53.3748 63.0485 53.4933 63.3346 53.7043 63.5456C53.9152 63.7566 54.2014 63.8751 54.4998 63.8751H60.4998C60.5843 63.8752 60.6686 63.8657 60.751 63.847L73.3135 60.9576L73.3585 60.9463C73.8313 60.8174 74.3351 60.8678 74.7731 61.0877C75.2111 61.3076 75.5523 61.6816 75.7314 62.1378C75.9104 62.594 75.9146 63.1002 75.7431 63.5593C75.5716 64.0184 75.2365 64.398 74.8023 64.6251Z" fill="white"/>
</svg>
