<svg width="104" height="104" viewBox="0 0 104 104" fill="none" xmlns="http://www.w3.org/2000/svg">
<rect x="1" y="1" width="102" height="102" rx="51" stroke="#EAB308" stroke-width="2" stroke-dasharray="8 4"/>
<rect x="8.5" y="8.5" width="95" height="95" rx="47.5" fill="#EAB308"/>
<rect x="8.5" y="8.5" width="95" height="95" rx="47.5" stroke="#EAB308"/>
<path fill-rule="evenodd" clip-rule="evenodd" d="M44.4 52C45.6731 52 46.8939 51.4943 47.7941 50.5941C48.6943 49.6939 49.2 48.473 49.2 47.2C49.2 45.927 48.6943 44.7061 47.7941 43.8059C46.8939 42.9057 45.6731 42.4 44.4 42.4C43.127 42.4 41.9061 42.9057 41.0059 43.8059C40.1057 44.7061 39.6 45.927 39.6 47.2C39.6 48.473 40.1057 49.6939 41.0059 50.5941C41.9061 51.4943 43.127 52 44.4 52ZM44.4 54.4C45.3455 54.4 46.2818 54.2138 47.1553 53.8519C48.0289 53.4901 48.8226 52.9598 49.4912 52.2912C50.1598 51.6226 50.6901 50.8289 51.0519 49.9553C51.4138 49.0818 51.6 48.1455 51.6 47.2C51.6 46.2545 51.4138 45.3182 51.0519 44.4447C50.6901 43.5711 50.1598 42.7774 49.4912 42.1088C48.8226 41.4402 48.0289 40.9099 47.1553 40.5481C46.2818 40.1862 45.3455 40 44.4 40C42.4905 40 40.6591 40.7586 39.3088 42.1088C37.9586 43.4591 37.2 45.2904 37.2 47.2C37.2 49.1096 37.9586 50.9409 39.3088 52.2912C40.6591 53.6414 42.4905 54.4 44.4 54.4Z" fill="white"/>
<path fill-rule="evenodd" clip-rule="evenodd" d="M41.6496 51.7504C41.7614 51.8619 41.85 51.9943 41.9105 52.1401C41.971 52.2859 42.0021 52.4422 42.0021 52.6C42.0021 52.7578 41.971 52.9141 41.9105 53.0599C41.85 53.2057 41.7614 53.3381 41.6496 53.4496L40.8384 54.2584C39.2773 55.8199 38.4002 57.9375 38.4 60.1456V64.6C38.4 64.9183 38.2736 65.2235 38.0485 65.4485C37.8235 65.6736 37.5183 65.8 37.2 65.8C36.8817 65.8 36.5765 65.6736 36.3515 65.4485C36.1264 65.2235 36 64.9183 36 64.6V60.1456C36.0003 57.3011 37.1304 54.5731 39.1416 52.5616L39.9504 51.7504C40.0619 51.6386 40.1943 51.55 40.3401 51.4895C40.4859 51.429 40.6422 51.3979 40.8 51.3979C40.9578 51.3979 41.1141 51.429 41.2599 51.4895C41.4057 51.55 41.5381 51.6386 41.6496 51.7504ZM69.9504 51.0304C69.8386 51.1419 69.75 51.2743 69.6895 51.4201C69.629 51.5659 69.5979 51.7222 69.5979 51.88C69.5979 52.0378 69.629 52.1941 69.6895 52.3399C69.75 52.4857 69.8386 52.6181 69.9504 52.7296L70.7616 53.5384C71.5347 54.3115 72.1479 55.2294 72.5663 56.2395C72.9847 57.2496 73.2 58.3323 73.2 59.4256V64.6C73.2 64.9183 73.3264 65.2235 73.5515 65.4485C73.7765 65.6736 74.0817 65.8 74.4 65.8C74.7183 65.8 75.0235 65.6736 75.2485 65.4485C75.4736 65.2235 75.6 64.9183 75.6 64.6V59.4256C75.5997 56.5811 74.4696 53.8531 72.4584 51.8416L71.6496 51.0304C71.5381 50.9186 71.4057 50.83 71.2599 50.7695C71.1141 50.709 70.9578 50.6779 70.8 50.6779C70.6422 50.6779 70.4859 50.709 70.3401 50.7695C70.1943 50.83 70.0619 50.9186 69.9504 51.0304Z" fill="white"/>
<path fill-rule="evenodd" clip-rule="evenodd" d="M66 52C64.7269 52 63.506 51.4943 62.6059 50.5941C61.7057 49.6939 61.2 48.473 61.2 47.2C61.2 45.927 61.7057 44.7061 62.6059 43.8059C63.506 42.9057 64.7269 42.4 66 42.4C67.273 42.4 68.4939 42.9057 69.3941 43.8059C70.2943 44.7061 70.8 45.927 70.8 47.2C70.8 48.473 70.2943 49.6939 69.3941 50.5941C68.4939 51.4943 67.273 52 66 52ZM66 54.4C65.0545 54.4 64.1182 54.2138 63.2447 53.8519C62.3711 53.4901 61.5774 52.9598 60.9088 52.2912C60.2402 51.6226 59.7099 50.8289 59.3481 49.9553C58.9862 49.0818 58.8 48.1455 58.8 47.2C58.8 46.2545 58.9862 45.3182 59.3481 44.4447C59.7099 43.5711 60.2402 42.7774 60.9088 42.1088C61.5774 41.4402 62.3711 40.9099 63.2447 40.5481C64.1182 40.1862 65.0545 40 66 40C67.9095 40 69.7409 40.7586 71.0912 42.1088C72.4414 43.4591 73.2 45.2904 73.2 47.2C73.2 49.1096 72.4414 50.9409 71.0912 52.2912C69.7409 53.6414 67.9095 54.4 66 54.4ZM55.2 62.2C53.6087 62.2 52.0826 62.8321 50.9573 63.9574C49.8321 65.0826 49.2 66.6087 49.2 68.2V71.32C49.2 71.6383 49.0736 71.9435 48.8485 72.1685C48.6235 72.3936 48.3182 72.52 48 72.52C47.6817 72.52 47.3765 72.3936 47.1515 72.1685C46.9264 71.9435 46.8 71.6383 46.8 71.32V68.2C46.8 65.9722 47.685 63.8356 49.2603 62.2603C50.8356 60.685 52.9722 59.8 55.2 59.8C57.4278 59.8 59.5644 60.685 61.1397 62.2603C62.715 63.8356 63.6 65.9722 63.6 68.2V71.32C63.6 71.6383 63.4736 71.9435 63.2485 72.1685C63.0235 72.3936 62.7182 72.52 62.4 72.52C62.0817 72.52 61.7765 72.3936 61.5515 72.1685C61.3264 71.9435 61.2 71.6383 61.2 71.32V68.2C61.2 67.4121 61.0448 66.6319 60.7433 65.9039C60.4417 65.1759 59.9998 64.5145 59.4426 63.9574C58.8855 63.4002 58.224 62.9582 57.4961 62.6567C56.7681 62.3552 55.9879 62.2 55.2 62.2Z" fill="white"/>
<path fill-rule="evenodd" clip-rule="evenodd" d="M55.2 58.6C56.473 58.6 57.6939 58.0943 58.5941 57.1941C59.4943 56.2939 60 55.073 60 53.8C60 52.5269 59.4943 51.306 58.5941 50.4059C57.6939 49.5057 56.473 49 55.2 49C53.927 49 52.7061 49.5057 51.8059 50.4059C50.9057 51.306 50.4 52.5269 50.4 53.8C50.4 55.073 50.9057 56.2939 51.8059 57.1941C52.7061 58.0943 53.927 58.6 55.2 58.6ZM55.2 61C57.1096 61 58.9409 60.2414 60.2912 58.8911C61.6414 57.5409 62.4 55.7095 62.4 53.8C62.4 51.8904 61.6414 50.0591 60.2912 48.7088C58.9409 47.3585 57.1096 46.6 55.2 46.6C53.2904 46.6 51.4591 47.3585 50.1088 48.7088C48.7586 50.0591 48 51.8904 48 53.8C48 55.7095 48.7586 57.5409 50.1088 58.8911C51.4591 60.2414 53.2904 61 55.2 61Z" fill="white"/>
</svg>
